<svg id="Layer_1" data-name="Layer 1" xmlns="http://www.w3.org/2000/svg" viewBox="0 0 150 91.56">
  <path class="cls-1" d="M150,23.18h-33.29v.14L93.39,0l-18.47,18.47L56.45,0l-23.18,23.18H0v12.49H20.78l-7.03,7.03v6.16l7.04,7.04H0v12.49H33.28l23.17,23.17,18.49-18.49,18.47,18.47,23.3-23.3v.15h33.29v-12.49h-20.95l7.32-7.32v-5.59l-7.31-7.31h20.94v-12.49ZM28.33,45.78l28.12-28.11,9.64,9.64-28.11,28.11-9.64-9.64Zm28.12,28.12l-9.64-9.64L93.39,17.66l9.64,9.64-46.59,46.59Zm36.96-.02l-9.64-9.64,28.1-28.1,9.64,9.64-28.1,28.1Z"/>
</svg>
