<?xml version="1.0" encoding="UTF-8" standalone="no"?>
<!-- Created with Inkscape (http://www.inkscape.org/) -->

<svg
   width="191.43132mm"
   height="34.137375mm"
   viewBox="0 0 191.43132 34.137375"
   version="1.1"
   id="svg1"
   inkscape:version="1.3.2 (091e20e, 2023-11-25)"
   sodipodi:docname="timetracker-icon-text.svg"
   xmlns:inkscape="http://www.inkscape.org/namespaces/inkscape"
   xmlns:sodipodi="http://sodipodi.sourceforge.net/DTD/sodipodi-0.dtd"
   xmlns="http://www.w3.org/2000/svg"
   xmlns:svg="http://www.w3.org/2000/svg">
  <sodipodi:namedview
     id="namedview1"
     pagecolor="#ffffff"
     bordercolor="#000000"
     borderopacity="0.25"
     inkscape:showpageshadow="2"
     inkscape:pageopacity="0.0"
     inkscape:pagecheckerboard="0"
     inkscape:deskcolor="#d1d1d1"
     inkscape:document-units="mm"
     inkscape:zoom="0.92737795"
     inkscape:cx="416.22728"
     inkscape:cy="73.325013"
     inkscape:window-width="1280"
     inkscape:window-height="1367"
     inkscape:window-x="2565"
     inkscape:window-y="35"
     inkscape:window-maximized="0"
     inkscape:current-layer="g12" />
  <defs
     id="defs1">
    <rect
       x="437.79346"
       y="335.3541"
       width="990.38214"
       height="235.56926"
       id="rect1" />
    <rect
       x="437.79346"
       y="335.3541"
       width="990.38214"
       height="235.56926"
       id="rect7" />
    <rect
       x="437.79346"
       y="335.3541"
       width="990.38214"
       height="235.56926"
       id="rect8" />
  </defs>
  <g
     inkscape:label="Layer 1"
     inkscape:groupmode="layer"
     id="layer1"
     transform="translate(5.0270836,-129.38125)">
    <g
       id="g12"
       transform="translate(-58.915335,41.322955)">
      <g
         id="g11"
         transform="translate(0,1.0259965)">
        <g
           id="g9"
           style="fill:none;stroke:#6766f4;stroke-opacity:1"
           transform="matrix(1.4247895,0,0,1.4247895,53.855874,86.980155)">
          <path
             d="m 12.00252,22.845174 c 5.980519,0 10.828781,-4.848261 10.828781,-10.828781 0,-2.3663196 -0.759011,-4.5553634 -2.046849,-6.3369641 C 20.296206,5.0039873 19.731949,4.3871089 19.104225,3.8413364 17.203024,2.1883425 14.719627,1.1876123 12.00252,1.1876123 c -5.9805726,0 -10.8287806,4.8482079 -10.8287806,10.8287807 0,1.73228 0.4067507,3.369485 1.12994,4.821516 0.1921893,0.385829 0.2561549,0.826886 0.1447375,1.243251 l -0.644973,2.410595 c -0.2799891,1.046385 0.6773403,2.00365 1.7237688,1.723727 l 2.4105302,-0.644964 c 0.4164098,-0.111426 0.8574445,-0.04742 1.2432955,0.144673 1.4519664,0.723256 3.0892026,1.129983 4.8214816,1.129983 z"
             stroke="#1c274c"
             stroke-width="1.67228"
             id="path1"
             sodipodi:nodetypes="ssssssccccccs"
             style="fill:none;stroke:#6766f4;stroke-width:2.30203;stroke-dasharray:none;stroke-opacity:1" />
        </g>
        <path
           style="fill:none;stroke:#6766f4;stroke-width:3.2;stroke-linecap:round;stroke-linejoin:round;stroke-dasharray:none;stroke-opacity:1"
           d="m 69.761024,98.562695 c 0.02894,2.028405 0.05786,3.531195 0.0868,6.085205 2.805092,1.61952 2.643834,1.49497 5.83163,3.33545"
           id="path3"
           sodipodi:nodetypes="ccc" />
      </g>
      <path
         style="font-size:74.6667px;font-family:Inconsolata;-inkscape-font-specification:Inconsolata;white-space:pre;fill:#6766f4;stroke-width:1;stroke-linecap:round;stroke-linejoin:bevel"
         d="m 99.545881,112.09082 q -0.730957,0 -1.343377,-0.23707 -0.612423,-0.21731 -1.047046,-0.75071 -0.434624,-0.55315 -0.651934,-1.50142 -0.21731,-0.94827 -0.158043,-2.41018 l 0.276577,-6.71689 2.844802,-0.37536 0.1778,-0.0198 0.01976,0.21731 q -0.07902,0.13829 -0.158044,0.27658 -0.07902,0.13829 -0.09878,0.47413 l -0.237067,3.04236 h 0.118534 l -0.158046,2.96333 q -0.05927,1.12607 0.07902,1.75825 0.158043,0.61242 0.434623,0.84949 0.296333,0.23706 0.61242,0.23706 0.61242,0 1.10631,-0.25682 0.51365,-0.25682 0.889,-0.57291 l 0.47414,1.9558 q -0.67169,0.49389 -1.46191,0.79022 -0.77047,0.27658 -1.71874,0.27658 z m -4.89938,-9.54194 h 7.467599 l -0.0395,2.17311 h -7.467599 z m 10.332159,9.30487 v -2.17311 h 2.21263 v -4.95865 h -2.11385 v -2.17311 h 4.91914 v 7.13176 h 2.01506 v 2.17311 z m 3.47698,-10.56923 q -0.69144,0 -1.18533,-0.45437 -0.47414,-0.47414 -0.47414,-1.106315 0,-0.691444 0.45438,-1.126067 0.47414,-0.434623 1.20509,-0.434623 0.65194,0 1.14582,0.474133 0.51365,0.45438 0.51365,1.086557 0,0.632175 -0.51365,1.106315 -0.49388,0.45437 -1.14582,0.45437 z m 5.43278,10.56923 v -9.30487 h 2.25214 v 0.5334 q 0.23706,-0.29633 0.47413,-0.45438 0.23707,-0.15804 0.47413,-0.21731 0.25682,-0.079 0.49389,-0.079 0.29633,0 0.57291,0.079 0.27658,0.079 0.5334,0.29633 0.25682,0.19756 0.43462,0.61243 0.23707,-0.37536 0.49389,-0.57291 0.25683,-0.21732 0.59267,-0.31609 0.3556,-0.0988 0.79022,-0.0988 0.5334,0 0.889,0.19755 0.37536,0.1778 0.61243,0.53341 0.23706,0.3556 0.33584,0.889 0.11853,0.5334 0.11853,1.22484 v 6.67738 h -2.35091 v -6.223 q 0,-0.45438 -0.0395,-0.73096 -0.0198,-0.29633 -0.0988,-0.43462 -0.0593,-0.13829 -0.21731,-0.13829 -0.1778,0 -0.3556,0.1778 -0.1778,0.15805 -0.29633,0.5334 -0.0988,0.3556 -0.0988,0.96802 v 5.84765 h -2.15336 v -6.20325 q 0,-0.84948 -0.0988,-1.12606 -0.0988,-0.27658 -0.31609,-0.27658 -0.15805,0 -0.29634,0.0988 -0.11853,0.0988 -0.21731,0.31609 -0.079,0.19755 -0.13829,0.51364 -0.0395,0.29633 -0.0395,0.69145 v 5.98593 z m 14.7179,0.23707 q -0.98778,0 -1.85703,-0.31609 -0.84949,-0.33584 -1.50142,-0.94827 -0.63218,-0.61242 -0.98778,-1.50142 -0.3556,-0.90876 -0.3556,-2.03482 0,-1.14583 0.33585,-2.05458 0.3556,-0.92851 0.94826,-1.56069 0.61243,-0.65194 1.4224,-0.98778 0.80998,-0.3556 1.75825,-0.3556 0.80998,0 1.54093,0.29633 0.75072,0.29634 1.32363,0.889 0.57291,0.57291 0.90875,1.44216 0.33585,0.84949 0.33585,1.9558 0,0.23707 0,0.59267 0,0.3556 -0.0198,0.57291 h -5.8674 q 0.0395,0.49389 0.23707,0.84949 0.19756,0.33584 0.49389,0.57291 0.31609,0.21731 0.67169,0.33584 0.37535,0.0988 0.75071,0.0988 0.39511,0 0.75071,-0.0593 0.3556,-0.0593 0.69144,-0.21732 0.33585,-0.1778 0.65194,-0.49388 l 1.38289,1.34337 q -0.47414,0.55316 -1.04705,0.90876 -0.57291,0.3556 -1.22484,0.51364 -0.65194,0.15805 -1.34338,0.15805 z m -1.99532,-6.06496 h 3.22016 q 0,-0.39511 -0.0988,-0.67169 -0.0988,-0.29633 -0.29633,-0.47413 -0.19755,-0.19756 -0.49389,-0.27658 -0.29633,-0.0988 -0.67169,-0.0988 -0.33584,0 -0.63218,0.0988 -0.27657,0.079 -0.49388,0.27658 -0.21732,0.1778 -0.3556,0.47413 -0.13829,0.27658 -0.17781,0.67169 z m 12.44601,6.06496 q -0.73095,0 -1.34338,-0.23707 -0.61242,-0.21731 -1.04704,-0.75071 -0.43462,-0.55315 -0.65193,-1.50142 -0.21732,-0.94827 -0.15805,-2.41018 l 0.27658,-6.71689 2.8448,-0.37536 0.1778,-0.0198 0.0198,0.21731 q -0.079,0.13829 -0.15804,0.27658 -0.079,0.13829 -0.0988,0.47413 l -0.23707,3.04236 h 0.11854 l -0.15805,2.96333 q -0.0593,1.12607 0.079,1.75825 0.15805,0.61242 0.43463,0.84949 0.29633,0.23706 0.61242,0.23706 0.61242,0 1.10631,-0.25682 0.51365,-0.25682 0.889,-0.57291 l 0.47414,1.9558 q -0.67169,0.49389 -1.46192,0.79022 -0.77046,0.27658 -1.71873,0.27658 z m -4.89938,-9.54194 h 7.4676 l -0.0395,2.17311 h -7.4676 z m 10.23338,0 h 2.86456 v 2.54847 l -0.31609,-0.079 q 0.0593,-0.59267 0.29633,-1.0668 0.25682,-0.49389 0.65194,-0.84949 0.39511,-0.37536 0.86924,-0.57292 0.49389,-0.19755 1.00753,-0.19755 0.80998,0 1.44216,0.25682 0.63218,0.25682 1.18533,0.82974 l -1.14582,2.39042 -0.0593,0.15804 -0.19755,-0.079 q -0.079,-0.15804 -0.11853,-0.33584 -0.0395,-0.19756 -0.25683,-0.43463 -0.25682,-0.21731 -0.59266,-0.3556 -0.31609,-0.15804 -0.7112,-0.15804 -0.45438,0 -0.84949,0.13829 -0.37536,0.13829 -0.65194,0.43462 -0.27658,0.29633 -0.43462,0.75071 -0.15804,0.45438 -0.15804,1.08656 v 4.84011 h -2.82505 z m 12.24845,9.54194 q -1.50142,0 -2.35091,-0.7112 -0.84949,-0.73096 -0.84949,-1.91629 0,-0.75071 0.31609,-1.38289 0.31609,-0.65193 0.98778,-1.12607 0.67169,-0.49389 1.71873,-0.77047 1.04705,-0.27657 2.50896,-0.27657 0.0593,0 0.21731,0 0.15805,0 0.3556,0 0.19756,0 0.33585,0 l 0.079,1.85702 q -0.11853,0 -0.33585,0 -0.21731,0 -0.45437,0.0198 -0.21731,0 -0.33585,0 -0.84949,0 -1.36313,0.11854 -0.51365,0.0988 -0.79022,0.29633 -0.25683,0.1778 -0.3556,0.41487 -0.0988,0.21731 -0.0988,0.43462 0,0.23707 0.079,0.41487 0.079,0.1778 0.21731,0.27657 0.13829,0.0988 0.33585,0.15805 0.19755,0.0395 0.41486,0.0395 0.47414,0 0.80998,-0.15805 0.33585,-0.15804 0.55316,-0.51364 0.23706,-0.37536 0.33584,-0.94827 0.11853,-0.57291 0.11853,-1.40264 0,-1.00754 -0.19755,-1.54094 -0.1778,-0.5334 -0.5334,-0.7112 -0.33585,-0.19755 -0.82974,-0.19755 -0.61242,0 -1.12606,0.1778 -0.51365,0.15804 -1.08656,0.75071 l -1.58044,-1.61996 q 0.889,-0.80997 1.89653,-1.12606 1.02729,-0.31609 1.99531,-0.31609 0.84949,0 1.6002,0.19755 0.77047,0.1778 1.36314,0.61243 0.61242,0.43462 0.94826,1.20509 0.3556,0.75071 0.3556,1.89653 v 5.61058 h -2.82504 v -0.73096 q -0.25682,0.23707 -0.51365,0.43463 -0.23706,0.1778 -0.5334,0.29633 -0.27657,0.11853 -0.61242,0.1778 -0.33584,0.0593 -0.77047,0.0593 z m 11.55701,0 q -1.02729,0 -1.91629,-0.33585 -0.889,-0.3556 -1.56069,-0.98777 -0.65193,-0.65194 -1.02729,-1.52118 -0.3556,-0.86925 -0.3556,-1.91629 0,-1.02729 0.3556,-1.93605 0.37536,-0.90875 1.02729,-1.58044 0.67169,-0.69145 1.56069,-1.08656 0.889,-0.39511 1.93605,-0.39511 1.38289,0 2.37066,0.49389 0.98778,0.47413 1.56069,1.34338 l -1.48166,1.67922 -0.11854,0.13829 -0.1778,-0.13829 q -0.0198,-0.15804 -0.0395,-0.33584 -0.0198,-0.1778 -0.21731,-0.43463 -0.33584,-0.33584 -0.77047,-0.45437 -0.43462,-0.11854 -0.98778,-0.11854 -0.43462,0 -0.82973,0.19756 -0.39511,0.1778 -0.7112,0.5334 -0.31609,0.3556 -0.49389,0.889 -0.1778,0.5334 -0.1778,1.2446 0,0.61242 0.1778,1.10631 0.19756,0.47413 0.49389,0.79022 0.31609,0.31609 0.69145,0.49389 0.39511,0.15805 0.79022,0.15805 0.39511,0 0.77047,-0.0988 0.39511,-0.0988 0.77046,-0.33585 0.39511,-0.25682 0.75071,-0.7112 l 1.50143,1.71874 q -0.77047,0.86924 -1.83727,1.2446 -1.0668,0.3556 -2.05458,0.3556 z m 8.57391,-4.16843 -0.45437,0.47414 v 3.45722 h -2.80529 V 98.518745 h 2.78553 0.1778 v 0.217313 q -0.0988,0.118533 -0.13829,0.25682 -0.0198,0.13829 -0.0198,0.474136 v 5.867406 l 2.86455,-2.88432 q 0.1778,0.0395 0.39511,0.079 0.21732,0.0198 0.43463,0.0395 0.21731,0.0198 0.39511,0.0395 0.19755,0 0.29633,0 h 1.44216 l -3.556,3.59551 3.95111,5.63034 -3.00285,0.0988 z m 11.10263,4.16843 q -0.98778,0 -1.85702,-0.31609 -0.84949,-0.33584 -1.50143,-0.94827 -0.63217,-0.61242 -0.98777,-1.50142 -0.3556,-0.90876 -0.3556,-2.03482 0,-1.14583 0.33584,-2.05458 0.3556,-0.92851 0.94827,-1.56069 0.61242,-0.65194 1.4224,-0.98778 0.80998,-0.3556 1.75824,-0.3556 0.80998,0 1.54094,0.29633 0.75071,0.29634 1.32362,0.889 0.57291,0.57291 0.90876,1.44216 0.33584,0.84949 0.33584,1.9558 0,0.23707 0,0.59267 0,0.3556 -0.0198,0.57291 h -5.8674 q 0.0395,0.49389 0.23707,0.84949 0.19755,0.33584 0.49389,0.57291 0.31609,0.21731 0.67169,0.33584 0.37535,0.0988 0.75071,0.0988 0.39511,0 0.75071,-0.0593 0.3556,-0.0593 0.69144,-0.21732 0.33585,-0.1778 0.65194,-0.49388 l 1.38289,1.34337 q -0.47414,0.55316 -1.04705,0.90876 -0.57291,0.3556 -1.22484,0.51364 -0.65194,0.15805 -1.34338,0.15805 z m -1.99531,-6.06496 h 3.22016 q 0,-0.39511 -0.0988,-0.67169 -0.0988,-0.29633 -0.29634,-0.47413 -0.19755,-0.19756 -0.49389,-0.27658 -0.29633,-0.0988 -0.67168,-0.0988 -0.33585,0 -0.63218,0.0988 -0.27658,0.079 -0.49389,0.27658 -0.21731,0.1778 -0.3556,0.47413 -0.13829,0.27658 -0.1778,0.67169 z m 7.90222,-3.47698 h 2.86456 v 2.54847 l -0.31609,-0.079 q 0.0593,-0.59267 0.29633,-1.0668 0.25682,-0.49389 0.65194,-0.84949 0.39511,-0.37536 0.86924,-0.57292 0.49389,-0.19755 1.00753,-0.19755 0.80998,0 1.44216,0.25682 0.63218,0.25682 1.18533,0.82974 l -1.14582,2.39042 -0.0593,0.15804 -0.19755,-0.079 q -0.079,-0.15804 -0.11853,-0.33584 -0.0395,-0.19756 -0.25683,-0.43463 -0.25682,-0.21731 -0.59266,-0.3556 -0.31609,-0.15804 -0.7112,-0.15804 -0.45438,0 -0.84949,0.13829 -0.37536,0.13829 -0.65194,0.43462 -0.27657,0.29633 -0.43462,0.75071 -0.15804,0.45438 -0.15804,1.08656 v 4.84011 h -2.82505 z"
         id="text1"
         aria-label="timetracker" />
      <path
         style="font-size:74.6667px;font-family:Inconsolata;-inkscape-font-specification:Inconsolata;white-space:pre;fill:#6766f4;stroke-width:1;stroke-linecap:round;stroke-linejoin:bevel"
         d="m 203.54323,112.09082 q -0.73096,0 -1.2446,-0.49389 -0.49389,-0.51365 -0.49389,-1.2446 0,-0.7112 0.49389,-1.20509 0.51364,-0.51365 1.2446,-0.51365 0.7112,0 1.20509,0.51365 0.51364,0.49389 0.51364,1.20509 0,0.73095 -0.51364,1.2446 -0.49389,0.49389 -1.20509,0.49389 z"
         id="text7"
         aria-label="." />
      <path
         style="font-size:74.6667px;font-family:Inconsolata;-inkscape-font-specification:Inconsolata;white-space:pre;fill:#6766f4;stroke-width:1;stroke-linecap:round;stroke-linejoin:bevel"
         d="m 212.0117,112.09082 q -1.02729,0 -1.91629,-0.33585 -0.88901,-0.3556 -1.56069,-0.98777 -0.65194,-0.65194 -1.02729,-1.52118 -0.3556,-0.86925 -0.3556,-1.91629 0,-1.02729 0.3556,-1.93605 0.37535,-0.90875 1.02729,-1.58044 0.67168,-0.69145 1.56069,-1.08656 0.889,-0.39511 1.93604,-0.39511 1.38289,0 2.37067,0.49389 0.98778,0.47413 1.56069,1.34338 l -1.48167,1.67922 -0.11853,0.13829 -0.1778,-0.13829 q -0.0198,-0.15804 -0.0395,-0.33584 -0.0198,-0.1778 -0.21731,-0.43463 -0.33585,-0.33584 -0.77047,-0.45437 -0.43462,-0.11854 -0.98778,-0.11854 -0.43462,0 -0.82973,0.19756 -0.39512,0.1778 -0.7112,0.5334 -0.31609,0.3556 -0.49389,0.889 -0.1778,0.5334 -0.1778,1.2446 0,0.61242 0.1778,1.10631 0.19755,0.47413 0.49389,0.79022 0.31608,0.31609 0.69144,0.49389 0.39511,0.15805 0.79022,0.15805 0.39511,0 0.77047,-0.0988 0.39511,-0.0988 0.77047,-0.33585 0.39511,-0.25682 0.75071,-0.7112 l 1.50142,1.71874 q -0.77047,0.86924 -1.83727,1.2446 -1.0668,0.3556 -2.05457,0.3556 z m 5.31424,-13.572075 h 2.80529 0.1778 v 0.217313 q -0.0988,0.118533 -0.13829,0.25682 -0.0198,0.13829 -0.0198,0.474136 v 4.030136 q 0.31609,-0.43462 0.73095,-0.67169 0.41487,-0.25682 0.86925,-0.37536 0.47413,-0.11853 0.90875,-0.11853 0.94827,0 1.61996,0.41487 0.69144,0.39511 1.0668,1.26435 0.37536,0.86925 0.37536,2.25214 v 5.59082 h -2.80529 v -5.57107 q 0,-0.7112 -0.11854,-1.12606 -0.11853,-0.43463 -0.3556,-0.61243 -0.21731,-0.1778 -0.57291,-0.1778 -0.33584,0 -0.61242,0.0988 -0.25682,0.0988 -0.47413,0.27658 -0.19756,0.1778 -0.3556,0.45438 -0.13829,0.25682 -0.21732,0.59266 -0.0593,0.33585 -0.0593,0.73096 v 5.334 h -2.82505 z m 12.7621,13.572075 q -1.50143,0 -2.35092,-0.7112 -0.84949,-0.73096 -0.84949,-1.91629 0,-0.75071 0.31609,-1.38289 0.31609,-0.65193 0.98778,-1.12607 0.67169,-0.49389 1.71874,-0.77047 1.04704,-0.27657 2.50895,-0.27657 0.0593,0 0.21731,0 0.15805,0 0.3556,0 0.19756,0 0.33585,0 l 0.079,1.85702 q -0.11853,0 -0.33584,0 -0.21731,0 -0.45438,0.0198 -0.21731,0 -0.33585,0 -0.84949,0 -1.36313,0.11854 -0.51365,0.0988 -0.79022,0.29633 -0.25683,0.1778 -0.3556,0.41487 -0.0988,0.21731 -0.0988,0.43462 0,0.23707 0.079,0.41487 0.079,0.1778 0.21731,0.27657 0.13829,0.0988 0.33585,0.15805 0.19755,0.0395 0.41486,0.0395 0.47414,0 0.80998,-0.15805 0.33585,-0.15804 0.55316,-0.51364 0.23707,-0.37536 0.33584,-0.94827 0.11854,-0.57291 0.11854,-1.40264 0,-1.00754 -0.19756,-1.54094 -0.1778,-0.5334 -0.5334,-0.7112 -0.33584,-0.19755 -0.82973,-0.19755 -0.61243,0 -1.12607,0.1778 -0.51365,0.15804 -1.08656,0.75071 l -1.58044,-1.61996 q 0.889,-0.80997 1.89653,-1.12606 1.02729,-0.31609 1.99531,-0.31609 0.84949,0 1.60021,0.19755 0.77046,0.1778 1.36313,0.61243 0.61242,0.43462 0.94827,1.20509 0.3556,0.75071 0.3556,1.89653 v 5.61058 h -2.82505 v -0.73096 q -0.25682,0.23707 -0.51364,0.43463 -0.23707,0.1778 -0.5334,0.29633 -0.27658,0.11853 -0.61243,0.1778 -0.33584,0.0593 -0.77046,0.0593 z m 12.05089,0 q -0.73095,0 -1.34338,-0.23707 -0.61242,-0.21731 -1.04704,-0.75071 -0.43462,-0.55315 -0.65194,-1.50142 -0.21731,-0.94827 -0.15804,-2.41018 l 0.27658,-6.71689 2.8448,-0.37536 0.1778,-0.0198 0.0198,0.21731 q -0.079,0.13829 -0.15804,0.27658 -0.079,0.13829 -0.0988,0.47413 l -0.23707,3.04236 h 0.11854 l -0.15805,2.96333 q -0.0593,1.12607 0.079,1.75825 0.15805,0.61242 0.43463,0.84949 0.29633,0.23706 0.61242,0.23706 0.61242,0 1.10631,-0.25682 0.51365,-0.25682 0.889,-0.57291 l 0.47414,1.9558 q -0.67169,0.49389 -1.46192,0.79022 -0.77046,0.27658 -1.71873,0.27658 z m -4.89938,-9.54194 h 7.46761 l -0.0395,2.17311 h -7.4676 z"
         id="text8"
         aria-label="chat" />
    </g>
  </g>
</svg>
