<svg
        id="Layer_1"
        data-name="Layer 1"
        xmlns="http://www.w3.org/2000/svg"
        viewBox="0 0 675.03 115.46"
      >
        <defs>
          <style>
            .cls-1 {
              fill: var(--color-primary);
            }
          </style>
        </defs>
        <g>
          <path
            class="cls-1"
            d="M255.1,90.38c-6.36-3.28-11.42-8.14-15.18-14.58-3.76-6.44-5.64-14.22-5.64-23.34s1.9-17.04,5.7-23.52c3.8-6.48,8.88-11.36,15.24-14.64,6.36-3.28,13.38-4.92,21.06-4.92,6.64,0,12.72,1.24,18.24,3.72,5.52,2.48,10,5.96,13.44,10.44,3.44,4.48,5.52,9.6,6.24,15.36h-17.04c-.4-3.04-1.58-5.72-3.54-8.04-1.96-2.32-4.48-4.12-7.56-5.4-3.08-1.28-6.42-1.92-10.02-1.92-4.88,0-9.24,1.1-13.08,3.3-3.84,2.2-6.84,5.46-9,9.78-2.16,4.32-3.24,9.56-3.24,15.72s1.08,11.4,3.24,15.72c2.16,4.32,5.18,7.58,9.06,9.78,3.88,2.2,8.26,3.3,13.14,3.3,3.68,0,7.06-.64,10.14-1.92,3.08-1.28,5.62-3.08,7.62-5.4,2-2.32,3.2-5,3.6-8.04h16.32c-.48,5.76-2.4,10.88-5.76,15.36-3.36,4.48-7.8,7.96-13.32,10.44-5.52,2.48-11.68,3.72-18.48,3.72-7.76,0-14.82-1.64-21.18-4.92Z"
          />
          <path
            class="cls-1"
            d="M332.56,91.22c-4.8-2.72-8.56-6.44-11.28-11.16-2.72-4.72-4.08-10.04-4.08-15.96s1.36-11.24,4.08-15.96c2.72-4.72,6.48-8.44,11.28-11.16,4.8-2.72,10.2-4.08,16.2-4.08s11.52,1.36,16.32,4.08c4.8,2.72,8.56,6.44,11.28,11.16,2.72,4.72,4.08,10.04,4.08,15.96s-1.36,11.24-4.08,15.96c-2.72,4.72-6.48,8.44-11.28,11.16-4.8,2.72-10.2,4.08-16.2,4.08s-11.52-1.36-16.32-4.08Zm24.84-11.34c2.48-1.56,4.4-3.7,5.76-6.42,1.36-2.72,2.04-5.84,2.04-9.36s-.68-6.64-2.04-9.36c-1.36-2.72-3.3-4.86-5.82-6.42-2.52-1.56-5.38-2.34-8.58-2.34s-6.04,.78-8.52,2.34c-2.48,1.56-4.4,3.7-5.76,6.42-1.36,2.72-2.04,5.84-2.04,9.36s.68,6.64,2.04,9.36c1.36,2.72,3.3,4.86,5.82,6.42,2.52,1.56,5.38,2.34,8.58,2.34s6.04-.78,8.52-2.34Z"
          />
          <path
            class="cls-1"
            d="M387.52,33.86h15.12v10.56c1.52-3.76,3.5-6.46,5.94-8.1,2.44-1.64,5.62-2.46,9.54-2.46h6.96v12.72h-9.6c-4.4,0-7.64,1.68-9.72,5.04-2.08,3.36-3.12,8-3.12,13.92v28.8h-15.12V33.86Z"
          />
          <path
            class="cls-1"
            d="M437.2,91.4c-4.16-2.6-7.38-6.26-9.66-10.98-2.28-4.72-3.42-10.16-3.42-16.32s1.14-11.58,3.42-16.26,5.52-8.34,9.72-10.98c4.2-2.64,9.18-3.96,14.94-3.96,3.68,0,7.12,.72,10.32,2.16,3.2,1.44,5.76,3.44,7.68,6V7.94h15.12V94.34h-15.12v-7.32c-1.76,2.48-4.3,4.48-7.62,6-3.32,1.52-6.86,2.28-10.62,2.28-5.68,0-10.6-1.3-14.76-3.9Zm26.28-11.4c2.4-1.48,4.28-3.6,5.64-6.36,1.36-2.76,2.04-5.94,2.04-9.54,0-5.52-1.44-9.92-4.32-13.2-2.88-3.28-6.76-4.92-11.64-4.92-3.2,0-6,.74-8.4,2.22-2.4,1.48-4.28,3.6-5.64,6.36-1.36,2.76-2.04,5.94-2.04,9.54,0,5.52,1.44,9.92,4.32,13.2,2.88,3.28,6.76,4.92,11.64,4.92,3.2,0,6-.74,8.4-2.22Z"
          />
          <path
            class="cls-1"
            d="M502.96,92.96c-3.04-1.56-5.4-3.72-7.08-6.48-1.68-2.76-2.52-5.9-2.52-9.42,0-3.84,.96-7.22,2.88-10.14,1.92-2.92,4.6-5.16,8.04-6.72,3.44-1.56,7.48-2.34,12.12-2.34h9.96c1.76,0,3.04-.32,3.84-.96,.8-.64,1.2-1.6,1.2-2.88,0-2.96-1.08-5.34-3.24-7.14-2.16-1.8-5.08-2.7-8.76-2.7-2.56,0-4.76,.48-6.6,1.44-1.84,.96-3.26,2.2-4.26,3.72-1,1.52-1.58,3.2-1.74,5.04h-13.44c.24-4,1.48-7.64,3.72-10.92,2.24-3.28,5.34-5.86,9.3-7.74,3.96-1.88,8.5-2.82,13.62-2.82s9.66,.94,13.62,2.82c3.96,1.88,7.08,4.5,9.36,7.86,2.28,3.36,3.42,7.28,3.42,11.76v39h-15v-8.88l-.6,1.08c-.96,1.76-2.28,3.3-3.96,4.62-1.68,1.32-3.68,2.34-6,3.06-2.32,.72-4.8,1.08-7.44,1.08-3.92,0-7.4-.78-10.44-2.34Zm24.6-13.02c2.56-2.8,3.84-6.44,3.84-10.92v-.84h-12.96c-3.2,0-5.76,.74-7.68,2.22-1.92,1.48-2.88,3.5-2.88,6.06,0,2.32,.84,4.18,2.52,5.58,1.68,1.4,3.88,2.1,6.6,2.1,4.48,0,8-1.4,10.56-4.2Z"
          />
          <path
            class="cls-1"
            d="M565.84,91.4c-4.16-2.6-7.38-6.26-9.66-10.98-2.28-4.72-3.42-10.16-3.42-16.32s1.14-11.58,3.42-16.26,5.52-8.34,9.72-10.98c4.2-2.64,9.18-3.96,14.94-3.96,3.68,0,7.12,.72,10.32,2.16,3.2,1.44,5.76,3.44,7.68,6V7.94h15.12V94.34h-15.12v-7.32c-1.76,2.48-4.3,4.48-7.62,6-3.32,1.52-6.86,2.28-10.62,2.28-5.68,0-10.6-1.3-14.76-3.9Zm26.28-11.4c2.4-1.48,4.28-3.6,5.64-6.36,1.36-2.76,2.04-5.94,2.04-9.54,0-5.52-1.44-9.92-4.32-13.2-2.88-3.28-6.76-4.92-11.64-4.92-3.2,0-6,.74-8.4,2.22-2.4,1.48-4.28,3.6-5.64,6.36-1.36,2.76-2.04,5.94-2.04,9.54,0,5.52,1.44,9.92,4.32,13.2,2.88,3.28,6.76,4.92,11.64,4.92,3.2,0,6-.74,8.4-2.22Z"
          />
          <path
            class="cls-1"
            d="M631.59,92.96c-3.04-1.56-5.4-3.72-7.08-6.48-1.68-2.76-2.52-5.9-2.52-9.42,0-3.84,.96-7.22,2.88-10.14,1.92-2.92,4.6-5.16,8.04-6.72,3.44-1.56,7.48-2.34,12.12-2.34h9.96c1.76,0,3.04-.32,3.84-.96,.8-.64,1.2-1.6,1.2-2.88,0-2.96-1.08-5.34-3.24-7.14-2.16-1.8-5.08-2.7-8.76-2.7-2.56,0-4.76,.48-6.6,1.44-1.84,.96-3.26,2.2-4.26,3.72-1,1.52-1.58,3.2-1.74,5.04h-13.44c.24-4,1.48-7.64,3.72-10.92,2.24-3.28,5.34-5.86,9.3-7.74,3.96-1.88,8.5-2.82,13.62-2.82s9.66,.94,13.62,2.82c3.96,1.88,7.08,4.5,9.36,7.86,2.28,3.36,3.42,7.28,3.42,11.76v39h-15v-8.88l-.6,1.08c-.96,1.76-2.28,3.3-3.96,4.62-1.68,1.32-3.68,2.34-6,3.06-2.32,.72-4.8,1.08-7.44,1.08-3.92,0-7.4-.78-10.44-2.34Zm24.6-13.02c2.56-2.8,3.84-6.44,3.84-10.92v-.84h-12.96c-3.2,0-5.76,.74-7.68,2.22-1.92,1.48-2.88,3.5-2.88,6.06,0,2.32,.84,4.18,2.52,5.58,1.68,1.4,3.88,2.1,6.6,2.1,4.48,0,8-1.4,10.56-4.2Z"
          />
        </g>
        <path
          class="cls-1"
          d="M191.94,29.23h-41.98v.18L120.55,0l-23.3,23.3L73.96,0l-29.23,29.23H2.78v15.75H28.98l-8.86,8.86v7.77l8.87,8.87H2.78v15.75H44.74l29.22,29.22,23.31-23.31,23.3,23.3,29.39-29.39v.19h41.98v-15.75h-26.42l9.24-9.24v-7.05l-9.22-9.22h26.41v-15.75ZM38.51,57.73L73.96,22.27l12.16,12.16-35.45,35.45-12.16-12.16Zm35.46,35.46l-12.16-12.16L120.55,22.27l12.16,12.16-58.75,58.75Zm46.61-.02l-12.16-12.16,35.44-35.44,12.16,12.16-35.44,35.44Z"
        />
      </svg>
